<?xml version="1.0" standalone="no"?>
<!DOCTYPE svg PUBLIC "-//W3C//DTD SVG 20010904//EN"
 "http://www.w3.org/TR/2001/REC-SVG-20010904/DTD/svg10.dtd">
<svg version="1.0" xmlns="http://www.w3.org/2000/svg"
 width="242.000000pt" height="230.000000pt" viewBox="0 0 242.000000 230.000000"
 preserveAspectRatio="xMidYMid meet">

<g transform="translate(0.000000,230.000000) scale(0.100000,-0.100000)"
fill="#000000" stroke="none">
<path d="M440 2283 c-32 -12 -40 -37 -40 -128 0 -123 2 -125 148 -125 l112 0
0 25 0 25 -105 0 -105 0 0 75 0 74 103 3 c101 3 102 3 102 28 0 25 -1 25 -100
27 -55 1 -107 -1 -115 -4z"/>
<path d="M710 2160 l0 -130 25 0 c23 0 25 3 25 50 0 31 4 50 12 50 6 0 35 -22
64 -50 43 -41 59 -50 88 -50 32 0 36 3 36 25 0 20 -5 25 -23 25 -13 0 -34 11
-47 25 l-23 25 24 0 c14 0 35 7 47 16 20 14 23 23 20 67 -4 68 -22 77 -150 77
l-98 0 0 -130z m200 45 c0 -24 -2 -25 -75 -25 -73 0 -75 1 -75 25 0 24 2 25
75 25 73 0 75 -1 75 -25z"/>
<path d="M1050 2284 c-33 -13 -40 -37 -40 -146 l0 -108 25 0 c23 0 25 3 25 50
l0 50 80 0 80 0 0 -50 c0 -47 2 -50 25 -50 l25 0 0 108 c0 144 -2 146 -117
149 -48 1 -95 0 -103 -3z m168 -76 c-3 -22 -8 -23 -78 -23 -70 0 -75 1 -78 23
-3 21 -1 22 78 22 79 0 81 -1 78 -22z"/>
<path d="M1342 2274 c-20 -14 -22 -23 -22 -114 0 -130 -1 -130 141 -130 l109
0 0 25 0 25 -100 0 -100 0 0 75 0 75 100 0 100 0 0 30 0 30 -103 0 c-77 0
-108 -4 -125 -16z"/>
<path d="M1627 2283 c-4 -3 -7 -62 -7 -130 l0 -123 25 0 c23 0 25 3 25 50 0
41 3 50 18 50 10 0 40 -22 67 -50 42 -43 55 -50 87 -50 34 0 38 3 38 25 0 21
-5 25 -28 25 -19 0 -40 12 -65 38 l-37 38 37 36 c21 20 49 38 63 40 19 2 26
10 28 31 3 24 0 27 -29 27 -25 0 -44 -12 -91 -56 -32 -30 -64 -54 -71 -52 -7
3 -13 26 -15 56 -2 42 -6 52 -21 52 -10 0 -21 -3 -24 -7z"/>
<path d="M1413 1758 c-69 -74 -524 -630 -521 -638 7 -18 220 -190 230 -184 17
11 530 628 541 652 17 36 -1 64 -86 136 -92 78 -117 83 -164 34z m134 -65 c68
-57 83 -72 83 -85 0 -8 -80 -102 -91 -106 -8 -3 -169 126 -169 136 0 9 93 112
101 112 5 0 39 -26 76 -57z m-199 -220 c-2 -10 -10 -18 -18 -18 -8 0 -16 8
-18 18 -2 12 3 17 18 17 15 0 20 -5 18 -17z m-71 -87 c-13 -33 -191 -234 -204
-229 -7 3 -13 10 -13 15 0 6 41 59 91 119 61 73 97 109 111 109 13 0 18 -5 15
-14z"/>
<path d="M823 1051 c-18 -21 -61 -60 -95 -85 -103 -77 -100 -74 -87 -97 20
-39 12 -125 -17 -180 -15 -27 -25 -50 -23 -52 2 -2 21 -17 42 -35 l38 -33 32
27 c48 41 93 56 156 53 l56 -3 40 75 c22 41 57 96 78 123 39 52 46 76 23 76
-18 0 -91 -93 -136 -172 l-32 -58 -52 0 c-36 0 -68 -8 -100 -24 -34 -17 -43
-19 -33 -7 77 93 103 119 135 136 56 30 54 95 -3 95 -27 0 -60 -34 -52 -54 4
-11 -105 -156 -119 -156 -2 0 4 19 12 43 11 28 14 60 10 98 l-5 57 73 60 c81
66 131 125 121 142 -11 18 -30 10 -62 -29z"/>
<path d="M1246 795 c-21 -7 -51 -25 -66 -40 -50 -48 -76 -135 -40 -135 6 0 19
19 29 43 23 54 73 97 112 97 l29 0 0 -75 c0 -86 6 -91 63 -44 28 23 37 27 37
14 0 -23 25 -29 57 -12 27 15 29 14 49 -10 16 -21 29 -26 59 -25 44 2 99 31
103 55 4 21 -16 22 -54 2 -45 -23 -67 -18 -92 21 -22 34 -24 35 -47 20 -30
-20 -45 -20 -45 -2 0 27 -19 27 -52 2 l-33 -25 3 50 c6 78 -24 95 -112 64z"/>
<path d="M595 509 c-4 -6 -3 -15 2 -20 5 -5 229 -8 549 -7 471 3 539 5 539 18
0 13 -68 15 -542 18 -384 1 -544 -1 -548 -9z"/>
<path d="M42 254 c-18 -12 -22 -25 -22 -64 0 -71 14 -80 116 -80 83 0 84 0 84
-25 l0 -25 -100 0 -100 0 0 -25 0 -25 109 0 c86 0 113 3 125 16 19 19 22 104
4 122 -8 8 -45 12 -100 12 -87 0 -88 0 -88 25 l0 25 100 0 100 0 0 30 0 30
-103 0 c-77 0 -108 -4 -125 -16z"/>
<path d="M320 140 l0 -130 25 0 c23 0 25 3 25 50 l0 50 80 0 80 0 0 -50 c0
-47 2 -50 25 -50 l26 0 -3 128 c-3 122 -4 127 -25 130 -20 3 -22 -2 -25 -50
l-3 -53 -77 -3 -78 -3 0 56 c0 52 -1 55 -25 55 l-25 0 0 -130z"/>
<path d="M653 255 c-21 -15 -23 -24 -23 -120 0 -126 -1 -125 129 -125 119 0
121 2 121 129 0 122 -2 125 -119 129 -67 3 -91 0 -108 -13z m177 -120 l0 -75
-75 0 -75 0 0 75 0 75 75 0 75 0 0 -75z"/>
<path d="M970 263 c-32 -11 -40 -37 -40 -123 0 -127 3 -130 146 -130 l114 0 0
25 0 25 -105 0 -105 0 0 75 0 74 103 3 102 3 3 28 3 27 -103 -1 c-57 0 -110
-3 -118 -6z"/>
<path d="M1240 140 l0 -130 25 0 c23 0 25 3 25 50 l0 50 75 0 75 0 0 -50 c0
-47 2 -50 25 -50 l25 0 0 131 c0 130 0 130 -22 127 -20 -3 -23 -10 -26 -55
l-3 -53 -75 0 -74 0 0 55 c0 52 -1 55 -25 55 l-25 0 0 -130z"/>
<path d="M1580 263 c-32 -11 -40 -37 -40 -123 0 -127 3 -130 146 -130 l114 0
0 25 0 25 -105 0 -105 0 0 25 0 25 105 0 c105 0 105 0 105 25 0 24 -1 24 -102
27 -98 3 -103 4 -106 25 -3 22 0 22 100 25 l103 3 3 28 3 27 -103 -1 c-57 0
-110 -3 -118 -6z"/>
<path d="M1850 140 l0 -130 25 0 c23 0 25 3 25 50 0 41 3 50 18 50 10 0 40
-22 67 -50 39 -40 56 -50 82 -50 29 0 33 3 33 25 0 20 -5 25 -23 25 -13 0 -34
11 -47 25 l-23 25 31 0 c44 0 62 23 62 80 0 70 -18 80 -147 80 l-103 0 0 -130z
m200 45 c0 -24 -2 -25 -75 -25 -73 0 -75 1 -75 25 0 24 2 25 75 25 73 0 75 -1
75 -25z"/>
<path d="M2182 254 c-18 -12 -22 -25 -22 -64 0 -71 14 -80 116 -80 83 0 84 0
84 -25 l0 -25 -100 0 -100 0 0 -25 0 -25 109 0 c86 0 113 3 125 16 19 19 22
104 4 122 -8 8 -45 12 -100 12 -87 0 -88 0 -88 25 l0 25 100 0 100 0 0 30 0
30 -103 0 c-77 0 -108 -4 -125 -16z"/>
</g>
</svg>
